<?xml version="1.0" encoding="UTF-8" standalone="no"?>
<!-- Created with Inkscape (http://www.inkscape.org/) -->

<svg
   width="32"
   height="32"
   viewBox="0 0 8.4666666 8.4666666"
   version="1.1"
   id="svg1"
   inkscape:version="1.3.2 (091e20e, 2023-11-25)"
   sodipodi:docname="brownfields_triangle.svg"
   xmlns:inkscape="http://www.inkscape.org/namespaces/inkscape"
   xmlns:sodipodi="http://sodipodi.sourceforge.net/DTD/sodipodi-0.dtd"
   xmlns="http://www.w3.org/2000/svg"
   xmlns:svg="http://www.w3.org/2000/svg">
  <sodipodi:namedview
     id="namedview1"
     pagecolor="#ffffff"
     bordercolor="#000000"
     borderopacity="0.25"
     inkscape:showpageshadow="2"
     inkscape:pageopacity="0.0"
     inkscape:pagecheckerboard="0"
     inkscape:deskcolor="#d1d1d1"
     inkscape:document-units="mm"
     inkscape:zoom="17.309141"
     inkscape:cx="22.58922"
     inkscape:cy="16.234197"
     inkscape:window-width="1712"
     inkscape:window-height="1111"
     inkscape:window-x="2056"
     inkscape:window-y="186"
     inkscape:window-maximized="0"
     inkscape:current-layer="layer1" />
  <defs
     id="defs1">
    <inkscape:perspective
       sodipodi:type="inkscape:persp3d"
       inkscape:vp_x="0 : 4.2333333 : 1"
       inkscape:vp_y="0 : 1000 : 0"
       inkscape:vp_z="8.4666666 : 4.2333333 : 1"
       inkscape:persp3d-origin="4.2333333 : 2.8222222 : 1"
       id="perspective1" />
  </defs>
  <g
     inkscape:label="Layer 1"
     inkscape:groupmode="layer"
     id="layer1">
    <path
       sodipodi:type="star"
       style="fill:#000000;stroke-width:0.264583"
       id="path10"
       inkscape:flatsided="false"
       sodipodi:sides="3"
       sodipodi:cx="4.2494407"
       sodipodi:cy="4.0965829"
       sodipodi:r1="4.8237157"
       sodipodi:r2="3.1836526"
       sodipodi:arg1="0.53172407"
       sodipodi:arg2="1.5789216"
       inkscape:rounded="0.2"
       inkscape:randomized="0"
       d="M 8.4071663,6.5423038 C 7.976386,7.2746303 5.0731763,7.2870339 4.2235729,7.2801304 3.3739694,7.273227 0.4713446,7.2136483 0.0525214,6.4744184 -0.36630178,5.7351885 1.0745612,3.2147334 1.5053415,2.482407 1.9361218,1.7500805 3.4390309,-0.73387698 4.2886343,-0.72697357 5.1382378,-0.72007015 6.6005844,1.7879814 7.0194076,2.5272113 7.4382308,3.2664412 8.8379465,5.8099774 8.4071663,6.5423038 Z"
       inkscape:transform-center-x="0.016207595"
       inkscape:transform-center-y="-0.81573453"
       transform="matrix(0.97320186,0,0,0.99534932,0.09085878,0.99716137)" />
    <path
       sodipodi:type="star"
       style="fill:#00a394;fill-opacity:1;stroke-width:0.264583"
       id="path11"
       inkscape:flatsided="false"
       sodipodi:sides="3"
       sodipodi:cx="4.2494407"
       sodipodi:cy="4.0965829"
       sodipodi:r1="4.8237157"
       sodipodi:r2="3.1836526"
       sodipodi:arg1="0.53172407"
       sodipodi:arg2="1.5789216"
       inkscape:rounded="0.2"
       inkscape:randomized="0"
       d="M 8.4071663,6.5423038 C 7.976386,7.2746303 5.0731763,7.2870339 4.2235729,7.2801304 3.3739694,7.273227 0.4713446,7.2136483 0.0525214,6.4744184 -0.36630178,5.7351885 1.0745612,3.2147334 1.5053415,2.482407 1.9361218,1.7500805 3.4390309,-0.73387698 4.2886343,-0.72697357 5.1382378,-0.72007015 6.6005844,1.7879814 7.0194076,2.5272113 7.4382308,3.2664412 8.8379465,5.8099774 8.4071663,6.5423038 Z"
       inkscape:transform-center-x="0.011739777"
       inkscape:transform-center-y="-0.59086784"
       transform="matrix(0.70492745,0,0,0.7209697,1.185271,2.0664085)" />
  </g>
</svg>
